# xmcd
#
# Track frame offsets: 
#        150
#        21280
#        37555
#        56918
#        74753
#        92880
#        127553
#        145263
#        165565
#
# Disc length: 2857 seconds
#
# Revision: 1
# Processed by: cddbd v1.5.2PL0 Copyright (c) Steve Scherf et al.
# Submitted via: ExactAudioCopy v0.95b4
#
DISCID=740b2709
DTITLE=Gibb Droll Band - 'Live'
DYEAR=1993
DGENRE=Rock
TTITLE0=Melting Pot
TTITLE1=Blue Love Shawl
TTITLE2=Texas Underground
TTITLE3=Gentry's Song
TTITLE4=People
TTITLE5=Unfaithful Woman
TTITLE6=Plastic Shuffle
TTITLE7=Carrie
TTITLE8=Bleeding Heart
EXTD=
EXTT0=
EXTT1=
EXTT2=
EXTT3=
EXTT4=
EXTT5=
EXTT6=
EXTT7=
EXTT8=
PLAYORDER=
